<mxfile host="app.diagrams.net" agent="Mozilla/5.0 (Windows NT 10.0; Win64; x64) AppleWebKit/537.36 (KHTML, like Gecko) Chrome/131.0.0.0 Safari/537.36 Edg/131.0.0.0" version="25.0.3">
  <diagram id="C5RBs43oDa-KdzZeNtuy" name="Page-1">
    <mxGraphModel dx="1796" dy="530" grid="1" gridSize="10" guides="1" tooltips="1" connect="1" arrows="1" fold="1" page="1" pageScale="1" pageWidth="827" pageHeight="1169" math="0" shadow="0">
      <root>
        <mxCell id="WIyWlLk6GJQsqaUBKTNV-0" />
        <mxCell id="WIyWlLk6GJQsqaUBKTNV-1" parent="WIyWlLk6GJQsqaUBKTNV-0" />
        <mxCell id="mvioNwK95yMqdUQ73LqQ-36" value="" style="swimlane;fontFamily=Sarabun;fontSource=https%3A%2F%2Ffonts.googleapis.com%2Fcss%3Ffamily%3DSarabun;" parent="WIyWlLk6GJQsqaUBKTNV-1" vertex="1">
          <mxGeometry x="-740" y="60" width="640" height="2380" as="geometry" />
        </mxCell>
        <mxCell id="UMGRapgqU9QTOk6EPsOg-40" style="edgeStyle=orthogonalEdgeStyle;rounded=0;orthogonalLoop=1;jettySize=auto;html=1;entryX=0.5;entryY=0;entryDx=0;entryDy=0;" edge="1" parent="mvioNwK95yMqdUQ73LqQ-36" source="mvioNwK95yMqdUQ73LqQ-35" target="UMGRapgqU9QTOk6EPsOg-12">
          <mxGeometry relative="1" as="geometry" />
        </mxCell>
        <mxCell id="mvioNwK95yMqdUQ73LqQ-35" value="&lt;font data-font-src=&quot;https://fonts.googleapis.com/css?family=Sarabun&quot; face=&quot;Sarabun&quot;&gt;Start&lt;/font&gt;" style="ellipse;whiteSpace=wrap;html=1;" parent="mvioNwK95yMqdUQ73LqQ-36" vertex="1">
          <mxGeometry x="262" y="50" width="130" height="30" as="geometry" />
        </mxCell>
        <mxCell id="UMGRapgqU9QTOk6EPsOg-2" style="edgeStyle=orthogonalEdgeStyle;rounded=0;orthogonalLoop=1;jettySize=auto;html=1;" edge="1" parent="mvioNwK95yMqdUQ73LqQ-36" source="UMGRapgqU9QTOk6EPsOg-0">
          <mxGeometry relative="1" as="geometry">
            <mxPoint x="327" y="630" as="targetPoint" />
          </mxGeometry>
        </mxCell>
        <mxCell id="UMGRapgqU9QTOk6EPsOg-0" value="Display &quot;Enter Number&quot;" style="shape=parallelogram;perimeter=parallelogramPerimeter;whiteSpace=wrap;html=1;fixedSize=1;" vertex="1" parent="mvioNwK95yMqdUQ73LqQ-36">
          <mxGeometry x="222" y="430" width="210" height="80" as="geometry" />
        </mxCell>
        <mxCell id="UMGRapgqU9QTOk6EPsOg-5" style="edgeStyle=orthogonalEdgeStyle;rounded=0;orthogonalLoop=1;jettySize=auto;html=1;" edge="1" parent="mvioNwK95yMqdUQ73LqQ-36" source="UMGRapgqU9QTOk6EPsOg-4">
          <mxGeometry relative="1" as="geometry">
            <mxPoint x="327" y="780" as="targetPoint" />
          </mxGeometry>
        </mxCell>
        <mxCell id="UMGRapgqU9QTOk6EPsOg-4" value="Read number" style="shape=parallelogram;perimeter=parallelogramPerimeter;whiteSpace=wrap;html=1;fixedSize=1;" vertex="1" parent="mvioNwK95yMqdUQ73LqQ-36">
          <mxGeometry x="222" y="630" width="210" height="80" as="geometry" />
        </mxCell>
        <mxCell id="UMGRapgqU9QTOk6EPsOg-28" style="edgeStyle=orthogonalEdgeStyle;rounded=0;orthogonalLoop=1;jettySize=auto;html=1;entryX=0.5;entryY=0;entryDx=0;entryDy=0;" edge="1" parent="mvioNwK95yMqdUQ73LqQ-36" source="UMGRapgqU9QTOk6EPsOg-6" target="UMGRapgqU9QTOk6EPsOg-26">
          <mxGeometry relative="1" as="geometry" />
        </mxCell>
        <mxCell id="UMGRapgqU9QTOk6EPsOg-6" value="i = 1" style="rounded=0;whiteSpace=wrap;html=1;" vertex="1" parent="mvioNwK95yMqdUQ73LqQ-36">
          <mxGeometry x="267" y="780" width="120" height="60" as="geometry" />
        </mxCell>
        <mxCell id="UMGRapgqU9QTOk6EPsOg-9" style="edgeStyle=orthogonalEdgeStyle;rounded=0;orthogonalLoop=1;jettySize=auto;html=1;" edge="1" parent="mvioNwK95yMqdUQ73LqQ-36" source="UMGRapgqU9QTOk6EPsOg-8">
          <mxGeometry relative="1" as="geometry">
            <mxPoint x="327" y="1070" as="targetPoint" />
          </mxGeometry>
        </mxCell>
        <mxCell id="UMGRapgqU9QTOk6EPsOg-34" style="edgeStyle=orthogonalEdgeStyle;rounded=0;orthogonalLoop=1;jettySize=auto;html=1;" edge="1" parent="mvioNwK95yMqdUQ73LqQ-36" source="UMGRapgqU9QTOk6EPsOg-8" target="UMGRapgqU9QTOk6EPsOg-31">
          <mxGeometry relative="1" as="geometry">
            <Array as="points">
              <mxPoint x="560" y="950" />
              <mxPoint x="560" y="1840" />
            </Array>
          </mxGeometry>
        </mxCell>
        <mxCell id="UMGRapgqU9QTOk6EPsOg-8" value="i &amp;lt;= n ?" style="rhombus;whiteSpace=wrap;html=1;" vertex="1" parent="mvioNwK95yMqdUQ73LqQ-36">
          <mxGeometry x="287" y="910" width="80" height="80" as="geometry" />
        </mxCell>
        <mxCell id="UMGRapgqU9QTOk6EPsOg-10" value="Yes" style="text;html=1;align=center;verticalAlign=middle;resizable=0;points=[];autosize=1;strokeColor=none;fillColor=none;" vertex="1" parent="mvioNwK95yMqdUQ73LqQ-36">
          <mxGeometry x="277" y="1010" width="40" height="30" as="geometry" />
        </mxCell>
        <mxCell id="UMGRapgqU9QTOk6EPsOg-14" style="edgeStyle=orthogonalEdgeStyle;rounded=0;orthogonalLoop=1;jettySize=auto;html=1;" edge="1" parent="mvioNwK95yMqdUQ73LqQ-36" source="UMGRapgqU9QTOk6EPsOg-11">
          <mxGeometry relative="1" as="geometry">
            <mxPoint x="327" y="1200" as="targetPoint" />
          </mxGeometry>
        </mxCell>
        <mxCell id="UMGRapgqU9QTOk6EPsOg-11" value="sum += value" style="rounded=0;whiteSpace=wrap;html=1;" vertex="1" parent="mvioNwK95yMqdUQ73LqQ-36">
          <mxGeometry x="267" y="1070" width="120" height="60" as="geometry" />
        </mxCell>
        <mxCell id="UMGRapgqU9QTOk6EPsOg-41" style="edgeStyle=orthogonalEdgeStyle;rounded=0;orthogonalLoop=1;jettySize=auto;html=1;entryX=0.5;entryY=0;entryDx=0;entryDy=0;" edge="1" parent="mvioNwK95yMqdUQ73LqQ-36" source="UMGRapgqU9QTOk6EPsOg-12" target="UMGRapgqU9QTOk6EPsOg-0">
          <mxGeometry relative="1" as="geometry" />
        </mxCell>
        <mxCell id="UMGRapgqU9QTOk6EPsOg-12" value="Declare &amp;amp; init&lt;div&gt;n (for user input)&lt;/div&gt;&lt;div&gt;value = 9&amp;nbsp; (for start value)&lt;/div&gt;&lt;div&gt;sum = 0 (for sum of number)&lt;/div&gt;&lt;div&gt;&lt;br&gt;&lt;/div&gt;" style="rounded=0;whiteSpace=wrap;html=1;" vertex="1" parent="mvioNwK95yMqdUQ73LqQ-36">
          <mxGeometry x="197" y="150" width="260" height="130" as="geometry" />
        </mxCell>
        <mxCell id="UMGRapgqU9QTOk6EPsOg-16" style="edgeStyle=orthogonalEdgeStyle;rounded=0;orthogonalLoop=1;jettySize=auto;html=1;" edge="1" parent="mvioNwK95yMqdUQ73LqQ-36" source="UMGRapgqU9QTOk6EPsOg-15">
          <mxGeometry relative="1" as="geometry">
            <mxPoint x="322" y="1310" as="targetPoint" />
          </mxGeometry>
        </mxCell>
        <mxCell id="UMGRapgqU9QTOk6EPsOg-15" value="Display value" style="shape=parallelogram;perimeter=parallelogramPerimeter;whiteSpace=wrap;html=1;fixedSize=1;" vertex="1" parent="mvioNwK95yMqdUQ73LqQ-36">
          <mxGeometry x="262" y="1200" width="120" height="60" as="geometry" />
        </mxCell>
        <mxCell id="UMGRapgqU9QTOk6EPsOg-18" style="edgeStyle=orthogonalEdgeStyle;rounded=0;orthogonalLoop=1;jettySize=auto;html=1;" edge="1" parent="mvioNwK95yMqdUQ73LqQ-36" source="UMGRapgqU9QTOk6EPsOg-17">
          <mxGeometry relative="1" as="geometry">
            <mxPoint x="322" y="1450" as="targetPoint" />
          </mxGeometry>
        </mxCell>
        <mxCell id="UMGRapgqU9QTOk6EPsOg-22" style="edgeStyle=orthogonalEdgeStyle;rounded=0;orthogonalLoop=1;jettySize=auto;html=1;" edge="1" parent="mvioNwK95yMqdUQ73LqQ-36" source="UMGRapgqU9QTOk6EPsOg-17">
          <mxGeometry relative="1" as="geometry">
            <mxPoint x="322" y="1580" as="targetPoint" />
            <Array as="points">
              <mxPoint x="510" y="1350" />
              <mxPoint x="510" y="1580" />
            </Array>
          </mxGeometry>
        </mxCell>
        <mxCell id="UMGRapgqU9QTOk6EPsOg-17" value="i &amp;lt; n ?" style="rhombus;whiteSpace=wrap;html=1;" vertex="1" parent="mvioNwK95yMqdUQ73LqQ-36">
          <mxGeometry x="282" y="1310" width="80" height="80" as="geometry" />
        </mxCell>
        <mxCell id="UMGRapgqU9QTOk6EPsOg-20" style="edgeStyle=orthogonalEdgeStyle;rounded=0;orthogonalLoop=1;jettySize=auto;html=1;" edge="1" parent="mvioNwK95yMqdUQ73LqQ-36" source="UMGRapgqU9QTOk6EPsOg-19">
          <mxGeometry relative="1" as="geometry">
            <mxPoint x="320" y="1630" as="targetPoint" />
          </mxGeometry>
        </mxCell>
        <mxCell id="UMGRapgqU9QTOk6EPsOg-19" value="Display &quot; + &quot;" style="shape=parallelogram;perimeter=parallelogramPerimeter;whiteSpace=wrap;html=1;fixedSize=1;" vertex="1" parent="mvioNwK95yMqdUQ73LqQ-36">
          <mxGeometry x="260" y="1450" width="120" height="60" as="geometry" />
        </mxCell>
        <mxCell id="UMGRapgqU9QTOk6EPsOg-21" value="value * 10 + 9&amp;nbsp;&lt;div&gt;then store in value variable&lt;/div&gt;" style="rounded=0;whiteSpace=wrap;html=1;" vertex="1" parent="mvioNwK95yMqdUQ73LqQ-36">
          <mxGeometry x="262" y="1634" width="120" height="60" as="geometry" />
        </mxCell>
        <mxCell id="UMGRapgqU9QTOk6EPsOg-29" style="edgeStyle=orthogonalEdgeStyle;rounded=0;orthogonalLoop=1;jettySize=auto;html=1;entryX=0;entryY=0.5;entryDx=0;entryDy=0;" edge="1" parent="mvioNwK95yMqdUQ73LqQ-36" source="UMGRapgqU9QTOk6EPsOg-24" target="UMGRapgqU9QTOk6EPsOg-26">
          <mxGeometry relative="1" as="geometry">
            <Array as="points">
              <mxPoint x="140" y="880" />
            </Array>
          </mxGeometry>
        </mxCell>
        <mxCell id="UMGRapgqU9QTOk6EPsOg-24" value="i++" style="rounded=0;whiteSpace=wrap;html=1;" vertex="1" parent="mvioNwK95yMqdUQ73LqQ-36">
          <mxGeometry x="77" y="1300" width="120" height="60" as="geometry" />
        </mxCell>
        <mxCell id="UMGRapgqU9QTOk6EPsOg-23" style="edgeStyle=orthogonalEdgeStyle;rounded=0;orthogonalLoop=1;jettySize=auto;html=1;" edge="1" parent="mvioNwK95yMqdUQ73LqQ-36" source="UMGRapgqU9QTOk6EPsOg-21" target="UMGRapgqU9QTOk6EPsOg-24">
          <mxGeometry relative="1" as="geometry">
            <mxPoint x="140" y="1400" as="targetPoint" />
          </mxGeometry>
        </mxCell>
        <mxCell id="UMGRapgqU9QTOk6EPsOg-27" style="edgeStyle=orthogonalEdgeStyle;rounded=0;orthogonalLoop=1;jettySize=auto;html=1;entryX=0.5;entryY=0;entryDx=0;entryDy=0;" edge="1" parent="mvioNwK95yMqdUQ73LqQ-36" source="UMGRapgqU9QTOk6EPsOg-26" target="UMGRapgqU9QTOk6EPsOg-8">
          <mxGeometry relative="1" as="geometry" />
        </mxCell>
        <mxCell id="UMGRapgqU9QTOk6EPsOg-26" value="" style="ellipse;whiteSpace=wrap;html=1;aspect=fixed;" vertex="1" parent="mvioNwK95yMqdUQ73LqQ-36">
          <mxGeometry x="317" y="870" width="20" height="20" as="geometry" />
        </mxCell>
        <mxCell id="UMGRapgqU9QTOk6EPsOg-38" style="edgeStyle=orthogonalEdgeStyle;rounded=0;orthogonalLoop=1;jettySize=auto;html=1;" edge="1" parent="mvioNwK95yMqdUQ73LqQ-36" source="UMGRapgqU9QTOk6EPsOg-31">
          <mxGeometry relative="1" as="geometry">
            <mxPoint x="320" y="2050" as="targetPoint" />
          </mxGeometry>
        </mxCell>
        <mxCell id="UMGRapgqU9QTOk6EPsOg-31" value="Display sum" style="shape=parallelogram;perimeter=parallelogramPerimeter;whiteSpace=wrap;html=1;fixedSize=1;" vertex="1" parent="mvioNwK95yMqdUQ73LqQ-36">
          <mxGeometry x="260" y="1910" width="120" height="60" as="geometry" />
        </mxCell>
        <mxCell id="UMGRapgqU9QTOk6EPsOg-36" value="No" style="text;html=1;align=center;verticalAlign=middle;resizable=0;points=[];autosize=1;strokeColor=none;fillColor=none;" vertex="1" parent="mvioNwK95yMqdUQ73LqQ-36">
          <mxGeometry x="347" y="1290" width="40" height="30" as="geometry" />
        </mxCell>
        <mxCell id="UMGRapgqU9QTOk6EPsOg-37" value="Yes" style="text;html=1;align=center;verticalAlign=middle;resizable=0;points=[];autosize=1;strokeColor=none;fillColor=none;" vertex="1" parent="mvioNwK95yMqdUQ73LqQ-36">
          <mxGeometry x="267" y="1390" width="40" height="30" as="geometry" />
        </mxCell>
        <mxCell id="UMGRapgqU9QTOk6EPsOg-39" value="&lt;font data-font-src=&quot;https://fonts.googleapis.com/css?family=Sarabun&quot; face=&quot;Sarabun&quot;&gt;End&lt;/font&gt;" style="ellipse;whiteSpace=wrap;html=1;" vertex="1" parent="mvioNwK95yMqdUQ73LqQ-36">
          <mxGeometry x="257" y="2050" width="130" height="30" as="geometry" />
        </mxCell>
        <mxCell id="UMGRapgqU9QTOk6EPsOg-35" value="No" style="text;html=1;align=center;verticalAlign=middle;resizable=0;points=[];autosize=1;strokeColor=none;fillColor=none;" vertex="1" parent="WIyWlLk6GJQsqaUBKTNV-1">
          <mxGeometry x="-370" y="978" width="40" height="30" as="geometry" />
        </mxCell>
      </root>
    </mxGraphModel>
  </diagram>
</mxfile>
